<svg width="601" height="600" xmlns="http://www.w3.org/2000/svg">
 <defs>
  <filter height="200%" width="200%" y="-50%" x="-50%" id="svg_2_blur">
   <feGaussianBlur stdDeviation="1" in="SourceGraphic"/>
  </filter>
 </defs>
 <g>
  <title>Layer 1</title>
  <path opacity="0.5" stroke="#000" filter="url(#svg_2_blur)" stroke-width="60" d="m43.05317,236.59315c0,-0.77757 -0.51966,-1.8444 1.69022,-4.6654c0.69883,-0.89207 1.00399,-3.1305 5.07067,-5.44297c4.54669,-2.58542 15.92318,-14.6412 22.81801,-22.54945c3.73925,-4.28885 9.29623,-10.88594 16.05712,-17.10648c6.76089,-6.22054 12.65652,-13.82512 16.05712,-17.10648c4.2055,-4.05802 14.65203,-10.4089 21.12779,-13.99621c6.22818,-3.45017 7.82749,-5.88834 13.52178,-9.33081c10.59435,-6.40479 19.69777,-12.56426 32.95935,-15.55134c8.24965,-1.85818 17.82436,-1.39626 23.66312,-3.88784c8.57158,-3.65776 13.69058,-8.01821 22.81801,-12.44108c6.38876,-3.09579 14.88806,-5.20262 23.66312,-9.33081c11.46106,-5.3918 19.32421,-6.38297 24.50823,-9.33081c5.7959,-3.29578 12.82623,-4.93381 16.90223,-6.22054c3.57488,-1.12854 5.75745,-2.49351 7.606,-3.88784c2.35645,-1.77742 7.30067,-3.45471 9.29623,-4.6654c3.79942,-2.30509 6.16332,-2.88253 6.76089,-2.3327c0.59757,0.54982 -0.12194,0.72636 -0.84511,2.3327c-1.02271,2.27171 -0.88565,11.46887 -5.91578,24.88215c-6.90774,18.42013 -12.74308,24.40023 -16.90223,32.65782c-5.7297,11.37573 -16.90535,22.66689 -33.80446,50.54187c-9.02893,14.89317 -23.88553,39.31055 -35.49468,52.87457c-4.82043,5.63215 -14.55153,18.69383 -23.66312,30.32512c-8.64402,11.03442 -17.82907,29.15395 -33.80446,55.20727c-7.26409,11.84658 -16.02786,31.55856 -21.12779,43.54376c-8.08719,19.00555 -12.87454,33.38608 -16.90223,47.4316c-4.44466,15.49957 -6.75676,21.65649 -7.606,29.54755c-0.58293,5.41649 -1.75894,12.45047 -0.84511,17.88405c0.7861,4.67414 0.04756,11.06994 0.84511,12.44108c1.4378,2.4718 3.38045,1.55513 5.91578,0.77757c2.53533,-0.77757 5.29547,-1.66325 11.83156,-3.88784c3.54469,-1.20645 4.73878,-1.00096 16.05712,-5.44297c10.79925,-4.23832 18.59245,-15.55134 27.04357,-21.77188c16.90223,-12.44108 41.12622,-33.62912 57.46758,-53.65214c22.43164,-27.48542 43.92459,-52.65408 64.22847,-78.53429c8.11251,-10.34057 25.71924,-34.42958 32.95935,-47.4316c15.86977,-28.49946 23.82619,-40.97078 35.49468,-52.87457c4.8027,-4.89957 8.47427,-9.30655 15.21201,-14.77378c7.63236,-6.19315 18.38615,-12.69423 36.33979,-24.88215c5.84994,-3.97127 10.08571,-4.26547 26.19845,-10.88594c16.2782,-6.68846 26.818,-15.80497 32.95935,-20.21675c5.95797,-4.28005 10.92373,-4.27472 15.21201,-4.6654c1.68202,-0.15324 4.17315,1.16502 9.29623,1.55513c2.52672,0.1924 4.4731,-0.54982 5.07067,0c1.79277,1.64947 1.79076,4.05532 3.38045,8.55324c3.5063,9.9208 7.67115,17.98308 5.91578,31.10269c-1.70296,12.72788 -8.20842,25.74576 -13.52178,38.10079c-8.08447,18.79862 -24.73215,42.63647 -32.11423,53.65214c-22.66858,33.82655 -41.73852,64.75255 -50.70669,82.42212c-8.79542,17.3292 -16.85183,37.38063 -18.59245,54.4297c-1.67663,16.42241 -4.29542,29.54138 -5.07067,37.32323c-0.92888,9.32407 -2.03014,15.56292 -2.53533,24.88215c-0.84617,15.60948 -1.78585,24.13866 -2.53533,31.10269c-0.84924,7.89109 -2.95645,13.94799 -3.38045,18.66161c-0.62733,6.97428 -0.51816,10.0443 1.69022,10.88594c0.78079,0.29757 3.49921,0.34118 9.29623,-1.55513c6.06431,-1.98374 11.51627,-3.26997 20.28267,-6.22054c9.68801,-3.26076 16.64651,-10.86477 28.73379,-17.10648c10.26485,-5.30064 18.79395,-9.92831 25.35334,-16.32891c6.9814,-6.81235 9.40248,-11.08864 16.90223,-22.54945c1.94947,-2.97909 2.8279,-6.76907 4.22556,-8.55324c2.20991,-2.82101 2.92307,-6.75974 3.38045,-7.77567c0.64683,-1.43675 2.47029,-3.92886 4.22556,-6.22054c2.00724,-2.62063 2.69255,-5.98146 4.22556,-6.9981c0.96958,-0.64297 2.58057,-2.75297 4.22556,-3.11027c1.83919,-0.39946 3.43621,-3.7927 5.07067,-4.6654c2.63545,-1.40718 3.73445,-2.65839 5.07067,-3.88784c1.33622,-1.22945 4.25145,-2.26453 6.76089,-3.11027c4.27337,-1.44026 6.09466,-2.88797 8.45111,-4.6654c0.92429,-0.69717 0.84511,-1.55513 1.69022,-1.55513l0.84511,0l0,0" id="svg_2" fill="none"/>
 </g>
</svg>